<?xml version="1.0" encoding="UTF-8"?>
<svg version="1.1" xmlns="http://www.w3.org/2000/svg" width="620" height="512">
<path d="M0 0 C1.28286392 -0.00556915 2.56572784 -0.01113831 3.88746643 -0.01687622 C5.29658695 -0.00785518 6.70570559 0.00146257 8.11482239 0.01104736 C9.60835897 0.01025596 11.10189534 0.00815706 12.59542847 0.00485229 C16.64069895 -0.00027073 20.68571398 0.01323031 24.73094344 0.0303793 C28.96561154 0.04543771 33.20027665 0.04424175 37.43496704 0.04504395 C44.54248912 0.04873316 51.64991443 0.06368533 58.75740051 0.08624268 C67.88415074 0.1151494 77.01082321 0.12546969 86.13761425 0.12992477 C93.9834489 0.13390261 101.82926661 0.14640196 109.67508912 0.16027164 C112.19825022 0.16437113 114.72141072 0.16729643 117.24457359 0.17006683 C121.20492934 0.1749573 125.16523787 0.18515644 129.1255703 0.19950485 C130.58045017 0.20402971 132.0353364 0.20686696 133.49022293 0.20791245 C135.47257674 0.20965681 137.45492118 0.21816866 139.43725586 0.22705078 C141.10276883 0.23151278 141.10276883 0.23151278 142.80192852 0.23606491 C145.52815247 0.36749268 145.52815247 0.36749268 148.52815247 1.36749268 C148.52815247 2.35749268 148.52815247 3.34749268 148.52815247 4.36749268 C149.18815247 4.36749268 149.84815247 4.36749268 150.52815247 4.36749268 C151.55114504 11.95104735 151.67350049 19.40106939 151.66096497 27.04718018 C151.66240005 28.98175583 151.66240005 28.98175583 151.66386414 30.95541382 C151.66532847 33.66667904 151.66322545 36.37791104 151.65852356 39.08917236 C151.65279262 42.56263266 151.65613436 46.03601624 151.66209602 49.5094738 C151.66657301 52.83454879 151.66344257 56.159603 151.66096497 59.48468018 C151.6629892 60.73151581 151.66501343 61.97835144 151.667099 63.26296997 C151.66394684 64.41491852 151.66079468 65.56686707 151.657547 66.75372314 C151.65635361 68.27520462 151.65635361 68.27520462 151.65513611 69.8274231 C151.52815247 72.36749268 151.52815247 72.36749268 150.52815247 75.36749268 C149.86815247 75.36749268 149.20815247 75.36749268 148.52815247 75.36749268 C148.19815247 76.35749268 147.86815247 77.34749268 147.52815247 78.36749268 C138.41432198 79.35341753 129.397716 79.49051678 120.24563217 79.44265747 C117.74894615 79.42971988 115.25231412 79.42333615 112.75559998 79.41851807 C107.4714261 79.40719373 102.18729802 79.38789849 96.90315247 79.36749268 C90.74093081 79.34386772 84.57873339 79.32353491 78.4164772 79.31155396 C75.95573316 79.30506947 73.49506607 79.29257275 71.03434753 79.27984619 C69.53667772 79.27621637 68.03900721 79.2728643 66.54133606 79.26983643 C65.2318399 79.26459961 63.92234375 79.25936279 62.57316589 79.25396729 C59.60997237 79.15425778 59.60997237 79.15425778 57.52815247 80.36749268 C56.87042818 83.39683758 56.87042818 83.39683758 56.52815247 86.36749268 C55.86815247 86.36749268 55.20815247 86.36749268 54.52815247 86.36749268 C54.45338684 86.95272705 54.37862122 87.53796143 54.30158997 88.14093018 C52.66518038 98.8257222 48.9513647 108.99309827 45.12190247 119.06671143 C42.88584726 124.9776938 40.95113487 130.99393897 38.96565247 136.99249268 C38.56668762 138.19389893 38.16772278 139.39530518 37.75666809 140.63311768 C37.01500524 142.8667734 36.27396259 145.10063522 35.5337677 147.33477783 C34.84644613 149.40758884 34.15432882 151.47881418 33.45808411 153.54864502 C32.78874804 155.57756449 32.17246258 157.62426361 31.59065247 159.67999268 C30.81280378 162.37958516 29.98931744 165.02144212 29.09065247 167.67999268 C28.00526668 170.89251642 26.99096161 174.11612149 26.02815247 177.36749268 C24.87372723 181.2554533 23.64334249 185.10757193 22.34455872 188.94952393 C21.74128143 190.73626382 21.14615427 192.52576029 20.55549622 194.31671143 C19.05525334 198.86307483 17.54830357 203.39427978 15.84065247 207.86749268 C14.8886003 210.40629845 14.14272968 212.74835986 13.52815247 215.36749268 C15.08916781 215.36830983 15.08916781 215.36830983 16.68171883 215.36914349 C41.99490951 215.3835341 67.30792814 215.42653082 92.62101936 215.49958324 C104.86221945 215.53424741 117.10330676 215.55959065 129.34455872 215.56304932 C140.01310912 215.56608721 150.68145876 215.58655433 161.3499316 215.62801725 C166.99970261 215.6493646 172.64918806 215.66193883 178.29899979 215.65364647 C183.61623275 215.64611749 188.93288656 215.66188262 194.25001335 215.69555283 C196.2018952 215.70379995 198.15383449 215.70351979 200.10571098 215.69408989 C202.77114484 215.68248705 205.43467456 215.70155608 208.09996033 215.72825623 C208.87234578 215.71758297 209.64473124 215.70690971 210.44052231 215.69591302 C216.23978472 215.80429409 218.6326116 217.35572752 222.52815247 221.36749268 C223.32446289 223.57923889 223.32446289 223.57923889 223.38825989 225.8550415 C223.42543121 226.72810944 223.46260254 227.60117737 223.50090027 228.5007019 C223.50989349 229.44674286 223.51888672 230.39278381 223.52815247 231.36749268 C223.55897919 232.37033295 223.58980591 233.37317322 223.62156677 234.40640259 C223.70956212 237.79375778 223.74509951 241.17829542 223.76643372 244.56671143 C223.77450546 245.8011348 223.78257721 247.03555817 223.79089355 248.30738831 C223.80464997 250.90170927 223.81540938 253.49604769 223.82331848 256.09039307 C223.83489819 258.73888465 223.85544284 261.38735184 223.88484192 264.03570557 C223.92744271 267.87953406 223.94367055 271.72267646 223.95393372 275.56671143 C223.9714418 276.7460173 223.98894989 277.92532318 224.00698853 279.1403656 C223.98983659 285.63853023 223.90846148 290.3484348 219.52815247 295.36749268 C214.07278514 296.55350982 208.62300241 296.50649793 203.068573 296.48774719 C202.13562564 296.48860162 201.20267828 296.48945604 200.24145979 296.49033636 C197.12614814 296.49197893 194.01089076 296.48648983 190.89558411 296.48101807 C188.65812684 296.48073591 186.42066949 296.4808945 184.18321228 296.48146057 C178.11563037 296.48174741 172.04806824 296.47586889 165.98049092 296.46888661 C159.63703973 296.46263432 153.29358808 296.46204779 146.95013428 296.46086121 C136.30515663 296.4581065 125.6601868 296.45186076 115.01521301 296.44293213 C104.0529738 296.43374697 93.09073655 296.42667154 82.12849426 296.42242432 C81.45228533 296.42216159 80.7760764 296.42189887 80.07937629 296.42162818 C76.68688657 296.42032311 73.29439683 296.41905941 69.90190709 296.41781628 C41.77731717 296.40745696 13.65273527 296.38977568 -14.47184753 296.36749268 C-14.60462097 297.62046143 -14.73739441 298.87343018 -14.87419128 300.16436768 C-15.28889529 304.07788508 -16.64577566 306.87413778 -18.47184753 310.36749268 C-18.47184753 311.68749268 -18.47184753 313.00749268 -18.47184753 314.36749268 C-19.13184753 314.36749268 -19.79184753 314.36749268 -20.47184753 314.36749268 C-20.43059753 315.23374268 -20.38934753 316.09999268 -20.34684753 316.99249268 C-20.47642474 320.49107736 -21.2320441 323.11300865 -22.47184753 326.36749268 C-23.13184753 326.36749268 -23.79184753 326.36749268 -24.47184753 326.36749268 C-24.57497253 327.50186768 -24.67809753 328.63624268 -24.78434753 329.80499268 C-25.51830466 335.61548657 -27.54114496 340.84321302 -29.55778503 346.31280518 C-29.92130066 347.30022705 -30.28481628 348.28764893 -30.65934753 349.30499268 C-31.00352722 350.22151611 -31.34770691 351.13803955 -31.70231628 352.08233643 C-32.5782283 354.28152026 -32.5782283 354.28152026 -32.47184753 356.36749268 C-33.13184753 356.36749268 -33.79184753 356.36749268 -34.47184753 356.36749268 C-34.14184753 357.35749268 -33.81184753 358.34749268 -33.47184753 359.36749268 C-34.21403503 361.70733643 -34.21403503 361.70733643 -35.34684753 364.30499268 C-36.83237248 367.68870243 -36.83237248 367.68870243 -37.91960144 371.20782471 C-38.55234071 373.68227721 -39.41461266 376.00496962 -40.31559753 378.39483643 C-42.79231522 385.12645674 -44.81143397 391.96922034 -46.82731628 398.84991455 C-48.49156979 404.43382394 -50.38238973 409.82125224 -52.60173035 415.20855713 C-53.59079837 417.66263359 -54.3859864 420.13202657 -55.09684753 422.67999268 C-56.03271281 426.01057204 -57.17101772 429.16194757 -58.47184753 432.36749268 C-57.73912494 432.3688492 -57.00640235 432.37020573 -56.25147605 432.37160337 C-12.85391016 432.4521998 30.54362347 432.54313228 73.94113894 432.64754429 C79.14836592 432.66006362 84.35559311 432.67249632 89.56282043 432.68487549 C90.59951452 432.68734148 91.6362086 432.68980748 92.70431766 432.6923482 C109.50487559 432.73210511 126.30544026 432.76483945 143.10601786 432.79499249 C160.33648659 432.82607287 177.56692659 432.86466757 194.79736304 432.91028273 C205.4351083 432.93820648 216.07283246 432.96022263 226.71060458 432.97475518 C233.9987817 432.98527243 241.28691806 433.00306833 248.57506451 433.02665971 C252.78407547 433.04006689 256.99302913 433.05019613 261.20206261 433.05170631 C265.05244535 433.05315843 268.90268993 433.06371215 272.75303027 433.08162709 C274.14877755 433.08649275 275.54454146 433.08796531 276.94029549 433.08577149 C278.83245163 433.08328482 280.72461139 433.09416989 282.61673355 433.10577965 C284.19561068 433.10919713 284.19561068 433.10919713 285.80638433 433.11268365 C288.59053749 433.37333309 290.22020028 433.80899384 292.52815247 435.36749268 C294.45598683 439.6022962 294.77687733 443.35512197 294.77107239 447.96783447 C294.77414902 449.25904709 294.77722565 450.5502597 294.78039551 451.88059998 C294.7734989 453.27597229 294.76623201 454.67134282 294.75862122 456.06671143 C294.75742786 457.50826476 294.75697658 458.94981888 294.75723267 460.39137268 C294.75567326 463.40307528 294.74742309 466.41465809 294.73396301 469.42633057 C294.71692808 473.28662916 294.71315031 477.14679693 294.7139082 481.00712872 C294.7136364 483.97965239 294.70815445 486.95214747 294.70090675 489.92466164 C294.69772593 491.34842526 294.69575405 492.77219211 294.69501305 494.19595909 C294.6928459 496.18242941 294.68330354 498.16888757 294.67341614 500.15533447 C294.66960434 501.28529343 294.66579254 502.41525238 294.66186523 503.57945251 C294.52815247 506.36749268 294.52815247 506.36749268 293.52815247 509.36749268 C288.56170415 512.05484475 284.37661365 512.80166812 278.73384762 512.74222279 C277.976242 512.74628351 277.21863638 512.75034424 276.43807301 512.75452802 C273.90280104 512.76446333 271.36808414 512.7530523 268.83282471 512.74171448 C266.99552097 512.74445542 265.1582188 512.7485078 263.32092053 512.75375813 C258.27455776 512.76434858 253.22837203 512.75621359 248.18201697 512.74500763 C242.73888543 512.7361698 237.29577717 512.74460792 231.85264587 512.75086975 C221.19078298 512.76036201 210.52898773 512.75375424 199.86712985 512.74160681 C187.45545011 512.72799198 175.0437865 512.7296242 162.63210119 512.73174014 C139.82063994 512.73502703 117.0092106 512.72211358 94.19775975 512.7018951 C73.3720906 512.68352346 52.5464558 512.67771344 31.72077942 512.6831665 C30.38342432 512.68351294 29.04606922 512.68385903 27.70871412 512.68420479 C26.71697074 512.68446129 26.71697074 512.68446129 25.70519213 512.68472296 C4.31267518 512.69020924 -17.07982852 512.68807771 -38.47234386 512.67768067 C-40.9662828 512.67647336 -43.46022175 512.67526737 -45.95416069 512.67406273 C-47.18128057 512.67345919 -48.40840045 512.67285565 -49.67270579 512.67223382 C-58.32821855 512.66835148 -66.98372515 512.66874952 -75.63923836 512.67064857 C-86.18383594 512.6727687 -96.72840048 512.66756019 -107.27298874 512.65303502 C-112.65492856 512.64578188 -118.03682021 512.64172187 -123.41876411 512.64627838 C-128.34281235 512.65034589 -133.266761 512.64521468 -138.1907941 512.63265231 C-139.97466134 512.62971731 -141.75853793 512.6301676 -143.54240281 512.63429538 C-145.9628493 512.63938883 -148.38296081 512.63223212 -150.80338383 512.62196827 C-151.84763989 512.628563 -151.84763989 512.628563 -152.91299203 512.63529095 C-157.91956702 512.59472367 -162.00380864 511.60151212 -166.47184753 509.36749268 C-166.98084279 507.73870787 -167.4758813 506.10404042 -167.89372253 504.44952393 C-168.44166326 502.33830111 -168.44166326 502.33830111 -169.29997253 500.25421143 C-172.89598269 491.05169452 -170.7965239 483.56531899 -167.57731628 474.51202393 C-166.09902164 470.30698085 -164.85371234 466.04151493 -163.59684753 461.76593018 C-162.68263679 459.00425188 -161.67232622 456.37359472 -160.56559753 453.68780518 C-158.33117159 448.18139347 -156.63425979 442.56827625 -154.97184753 436.86749268 C-153.05055772 430.27896001 -150.94889551 423.90688634 -148.33317566 417.56036377 C-147.28519 414.89227784 -146.58219967 412.22877845 -145.97184753 409.42999268 C-144.80694905 404.47917411 -143.24483636 399.83994432 -141.44059753 395.09014893 C-140.45898478 392.33134211 -139.69760421 389.57846577 -138.97184753 386.74249268 C-137.85214557 382.45233024 -136.32602866 378.62746309 -134.44841003 374.62139893 C-132.26566052 369.58361304 -130.97604873 364.21623039 -129.53434753 358.92999268 C-128.62562201 355.88308945 -127.58949898 352.96602291 -126.47184753 349.99249268 C-124.67957901 345.1573802 -123.46653404 340.42381573 -122.47184753 335.36749268 C-121.81184753 335.36749268 -121.15184753 335.36749268 -120.47184753 335.36749268 C-120.28622253 333.82061768 -120.28622253 333.82061768 -120.09684753 332.24249268 C-119.52533654 328.69912453 -118.63953061 325.74762789 -117.47184753 322.36749268 C-117.0812616 321.17253174 -116.69067566 319.9775708 -116.28825378 318.74639893 C-115.87031892 317.47425238 -115.45234976 316.20211709 -115.03434753 314.92999268 C-114.83003113 314.30028564 -114.62571472 313.67057861 -114.41520691 313.02178955 C-113.35437665 309.80625109 -112.20353182 306.67260887 -110.84294128 303.57452393 C-109.48700242 300.40294043 -109.01389789 297.75530739 -108.47184753 294.36749268 C-106.71343844 288.3605784 -104.44043489 282.50856238 -102.24137878 276.65264893 C-101.36546677 274.45346509 -101.36546677 274.45346509 -101.47184753 272.36749268 C-100.81184753 272.36749268 -100.15184753 272.36749268 -99.47184753 272.36749268 C-99.3390741 271.63143799 -99.20630066 270.8953833 -99.06950378 270.13702393 C-98.89290222 269.16120361 -98.71630066 268.1853833 -98.53434753 267.17999268 C-98.3603241 266.21706299 -98.18630066 265.2541333 -98.00700378 264.26202393 C-97.51947404 261.62509296 -97.00513648 258.99550218 -96.47184753 256.36749268 C-95.81184753 256.36749268 -95.15184753 256.36749268 -94.47184753 256.36749268 C-94.34809753 255.52186768 -94.22434753 254.67624268 -94.09684753 253.80499268 C-93.01887493 247.87614337 -91.12869434 242.20032077 -89.22184753 236.49249268 C-89.01003845 235.85682373 -88.79822937 235.22115479 -88.58000183 234.56622314 C-87.38602376 231.00632762 -86.15495166 227.46244233 -84.88200378 223.92999268 C-81.6447358 215.18551207 -81.6447358 215.18551207 -79.28434753 206.17999268 C-78.47184753 202.36749268 -78.47184753 202.36749268 -77.07341003 199.64483643 C-75.23086995 195.87437026 -74.13960726 192.15087932 -73.03434753 188.11749268 C-71.41960956 182.4032373 -69.6595717 176.89361823 -67.26872253 171.44561768 C-66.39679995 169.36429567 -66.39679995 169.36429567 -66.04997253 167.03936768 C-65.44634337 164.24962207 -64.40174557 161.84871615 -63.24284363 159.24981689 C-61.93800568 156.06416123 -61.12485514 152.76258896 -60.28434753 149.42999268 C-60.10710144 148.74614502 -59.92985535 148.06229736 -59.74723816 147.35772705 C-59.31717332 145.69558457 -58.89379317 144.03171479 -58.47184753 142.36749268 C-57.81184753 142.36749268 -57.15184753 142.36749268 -56.47184753 142.36749268 C-56.47184753 140.05749268 -56.47184753 137.74749268 -56.47184753 135.36749268 C-55.81184753 135.36749268 -55.15184753 135.36749268 -54.47184753 135.36749268 C-54.37387878 134.6894458 -54.27591003 134.01139893 -54.17497253 133.31280518 C-53.2210959 127.37574546 -51.77154902 122.16291868 -49.41325378 116.63702393 C-48.15962227 113.61478364 -47.33212121 110.52182949 -46.47184753 107.36749268 C-45.95806284 105.82346264 -45.436851 104.28188982 -44.90934753 102.74249268 C-43.85828613 99.63708399 -42.99531669 96.61300147 -42.47184753 93.36749268 C-41.81184753 93.36749268 -41.15184753 93.36749268 -40.47184753 93.36749268 C-40.38548035 92.64046143 -40.29911316 91.91343018 -40.21012878 91.16436768 C-39.24756109 84.27626861 -37.52133146 78.46519395 -34.59294128 72.15655518 C-33.41199613 69.21859407 -32.88288318 66.49875301 -32.47184753 63.36749268 C-31.81184753 63.36749268 -31.15184753 63.36749268 -30.47184753 63.36749268 C-30.80184753 62.37749268 -31.13184753 61.38749268 -31.47184753 60.36749268 C-30.50370056 55.35484388 -28.64712115 50.59500211 -26.47184753 45.99249268 C-24.41273427 41.57007895 -23.36137697 37.10092495 -22.25700378 32.36358643 C-21.27155389 28.60318807 -19.87824335 25.11144861 -18.37809753 21.53155518 C-16.92410551 18.05952251 -15.7467159 14.55484924 -14.89762878 10.88702393 C-14.67462097 9.99370361 -14.45161316 9.1003833 -14.22184753 8.17999268 C-14.03106628 7.34081299 -13.84028503 6.5016333 -13.64372253 5.63702393 C-10.96803029 0.45509994 -5.3187611 -0.00701797 0 0 Z " fill="#FFFFFF" transform="translate(324.4718475341797,-0.36749267578125)"/>
<path d="M0 0 C0.7921994 -0.0065712 1.5843988 -0.0131424 2.40060425 -0.01991272 C5.02244156 -0.03962531 7.6442217 -0.05130257 10.26611328 -0.0612793 C11.60963049 -0.06739259 11.60963049 -0.06739259 12.98028946 -0.07362938 C17.71927916 -0.0944795 22.45823999 -0.10878688 27.19726562 -0.11816406 C32.09231112 -0.12923791 36.98690321 -0.16365193 41.88178825 -0.20333576 C45.64617766 -0.22947181 49.41045841 -0.23785311 53.17493057 -0.24144554 C54.97945347 -0.24631779 56.78397131 -0.25794996 58.58840561 -0.27648354 C61.11399143 -0.30081572 63.6383955 -0.29992136 66.1640625 -0.29296875 C66.90813354 -0.30577881 67.65220459 -0.31858887 68.41882324 -0.33178711 C72.03554318 -0.29552155 74.0520452 0.07493655 77.12649536 2.04377747 C83.5035894 8.56858666 85.24761521 20.42744619 87.51220703 29.08374023 C88.64907717 33.41672358 88.64907717 33.41672358 90.41845703 37.5168457 C91.21142578 39.17700195 91.21142578 39.17700195 90.21142578 42.17700195 C90.87142578 42.50700195 91.53142578 42.83700195 92.21142578 43.17700195 C92.85577828 46.00499347 93.23468909 48.83818344 93.64892578 51.70825195 C93.83455078 52.52293945 94.02017578 53.33762695 94.21142578 54.17700195 C94.87142578 54.50700195 95.53142578 54.83700195 96.21142578 55.17700195 C96.62548828 57.4621582 96.62548828 57.4621582 96.83642578 60.23950195 C96.94857422 61.6181543 96.94857422 61.6181543 97.06298828 63.0246582 C97.11197266 63.73493164 97.16095703 64.44520508 97.21142578 65.17700195 C97.87142578 65.17700195 98.53142578 65.17700195 99.21142578 65.17700195 C99.34419922 65.80348633 99.47697266 66.4299707 99.61376953 67.07543945 C99.79037109 67.89270508 99.96697266 68.7099707 100.14892578 69.55200195 C100.32294922 70.36411133 100.49697266 71.1762207 100.67626953 72.01293945 C101.13473271 74.20646495 101.13473271 74.20646495 102.21142578 76.17700195 C101.88142578 76.83700195 101.55142578 77.49700195 101.21142578 78.17700195 C101.87142578 78.17700195 102.53142578 78.17700195 103.21142578 78.17700195 C104.94198677 83.70326004 106.5267578 89.1998209 107.68408203 94.8762207 C108.9178696 100.25919016 110.61601832 105.43767161 112.52392578 110.61450195 C115.74290831 119.52860743 118.60508787 128.55166958 121.20751953 137.6652832 C122.28513586 141.43484383 123.42038301 145.18408671 124.58642578 148.92700195 C124.80411621 149.62656006 125.02180664 150.32611816 125.24609375 151.046875 C126.51059108 155.06897408 127.85870522 159.03944123 129.33642578 162.98950195 C131.31694079 168.30015713 132.78559607 173.69566858 134.21142578 179.17700195 C135.09832457 182.46410936 135.99215455 185.66536909 137.33642578 188.80200195 C138.29751005 191.41065924 138.3690046 193.41937266 138.21142578 196.17700195 C138.87142578 196.50700195 139.53142578 196.83700195 140.21142578 197.17700195 C140.95751953 199.6184082 140.95751953 199.6184082 141.64892578 202.73950195 C142.6552342 207.0276906 143.82655597 211.02501101 145.45751953 215.10668945 C146.70203066 218.52425888 147.56346135 222.04285833 148.46533203 225.5637207 C149.1705428 228.20289369 149.1705428 228.20289369 150.24658203 230.76293945 C153.84490959 239.76604241 151.04734538 247.28116995 148.21142578 256.17700195 C147.67932373 258.09057084 147.15747136 260.00703845 146.64892578 261.92700195 C142.95550161 275.50283134 142.95550161 275.50283134 140.71142578 280.55200195 C138.6140718 285.6206074 137.45947527 290.84647735 136.21142578 296.17700195 C135.88068711 297.51098127 135.5484989 298.84460914 135.21142578 300.17700195 C134.55142578 300.17700195 133.89142578 300.17700195 133.21142578 300.17700195 C133.29392578 300.94012695 133.37642578 301.70325195 133.46142578 302.48950195 C133.16993787 306.78894869 131.89920414 310.0406411 130.35986328 314.03637695 C128.30785311 319.64799662 126.80413839 325.42182194 125.21142578 331.17700195 C123.88234738 335.93647694 122.43252074 340.63180387 120.86376953 345.31762695 C120.64701065 345.96648865 120.43025177 346.61535034 120.20692444 347.28387451 C119.52234884 349.33206326 118.83567975 351.37954271 118.14892578 353.42700195 C117.68459305 354.81497595 117.22039914 356.2029964 116.75634766 357.59106445 C115.57619315 361.12020877 114.393814 364.64860537 113.21142578 368.17700195 C112.88142578 369.16700195 112.55142578 370.15700195 112.21142578 371.17700195 C110.18436329 372.79865195 108.75542077 373.20404568 106.16845703 373.07543945 C104.17556017 372.82853188 102.19223673 372.50713711 100.21142578 372.17700195 C99.88142578 370.52700195 99.55142578 368.87700195 99.21142578 367.17700195 C98.55142578 367.17700195 97.89142578 367.17700195 97.21142578 367.17700195 C97.10185547 366.63172852 96.99228516 366.08645508 96.87939453 365.5246582 C95.87394413 360.742638 94.60055805 356.18587581 93.00048828 351.5715332 C91.83617811 348.03825531 90.90088341 344.45035732 89.95751953 340.8527832 C89.14054724 337.92280405 88.18207385 335.05953258 87.21142578 332.17700195 C86.55986625 330.07460136 85.91417292 327.97037509 85.27392578 325.86450195 C84.07716082 321.94822257 82.84804746 318.0520051 81.52392578 314.17700195 C80.72147134 311.82572414 80.1184854 309.69164662 79.64892578 307.23950195 C79.36208362 304.96433422 79.36208362 304.96433422 77.21142578 303.17700195 C76.83269644 301.5200611 76.50892524 299.85043643 76.21142578 298.17700195 C75.21988827 294.6204 74.18251797 291.07867319 73.14111328 287.53637695 C72.79306641 286.3452832 72.44501953 285.15418945 72.08642578 283.92700195 C71.73322266 282.7255957 71.38001953 281.52418945 71.01611328 280.28637695 C70.21142578 277.17700195 70.21142578 277.17700195 70.21142578 274.17700195 C69.55142578 273.84700195 68.89142578 273.51700195 68.21142578 273.17700195 C67.68408203 271.42700195 67.68408203 271.42700195 67.27392578 269.17700195 C66.04612153 263.1607611 64.07106014 257.54371681 61.97705078 251.77856445 C59.74028008 245.60770881 57.67067521 239.57524946 56.21142578 233.17700195 C53.03492817 221.08033537 53.03492817 221.08033537 48.58642578 209.42700195 C47.20548015 206.16294865 46.46848113 203.15062873 45.83642578 199.6809082 C45.11396943 196.78656744 44.06879171 194.0978501 43.00048828 191.31591797 C41.73355333 187.88163049 40.7231479 184.38086309 39.71142578 180.86450195 C39.49566895 180.12393555 39.27991211 179.38336914 39.05761719 178.62036133 C37.85780796 174.48358473 36.70138728 170.33756882 35.58642578 166.17700195 C33.84716969 159.73495287 31.78927715 153.51997974 29.21142578 147.36450195 C27.77302651 143.83339396 26.70665095 140.38825634 25.83642578 136.67700195 C23.60611209 127.18892713 20.22730458 118.0271367 17.05517578 108.8215332 C16.21142578 106.17700195 16.21142578 106.17700195 15.77392578 103.23950195 C15.23226778 100.29047506 14.26311484 97.92739336 13.02783203 95.2121582 C11.70663919 91.91865836 10.9203346 88.48964108 10.02783203 85.05981445 C9.22766943 82.2343599 8.26225212 79.54294061 7.21142578 76.80200195 C5.69502308 72.77549326 4.61862602 68.82016395 3.71142578 64.61450195 C2.64877545 59.73779855 1.20541774 55.36475893 -0.74560547 50.7824707 C-3.67324129 43.46886362 -5.64534575 35.74974253 -7.78857422 28.17700195 C-9.58354242 21.75731751 -9.58354242 21.75731751 -11.97607422 15.55200195 C-13.42389823 11.31990099 -13.39998964 7.01124821 -11.97607422 2.73950195 C-9.20231991 -0.91017477 -4.15940126 0.01494979 0 0 Z " fill="#FFFFFF" transform="translate(13.78857421875,-0.177001953125)"/>
<path d="" fill="#FFFFFF" transform="translate(0,0)"/>
<path d="" fill="#FFFFFF" transform="translate(0,0)"/>
<path d="" fill="#FFFFFF" transform="translate(0,0)"/>
<path d="" fill="#FFFFFF" transform="translate(0,0)"/>
<path d="" fill="#FFFFFF" transform="translate(0,0)"/>
<path d="" fill="#FFFFFF" transform="translate(0,0)"/>
<path d="" fill="#FFFFFF" transform="translate(0,0)"/>
</svg>
